<svg version="1.1" xmlns="http://www.w3.org/2000/svg" style="display: block;" viewBox="0 450.667 2037.333 1149.333" width="2037.333" height="1149.333" preserveAspectRatio="none">
<defs>
	<linearGradient id="svgi_r_5___Gradient1" gradientUnits="userSpaceOnUse" x1="1791.31" y1="1358.48" x2="1776.57" y2="1330.15">
		<stop class="stop0" offset="0" stop-opacity="1" stop-color="rgb(112,148,185)"></stop>
		<stop class="stop1" offset="1" stop-opacity="1" stop-color="rgb(160,176,194)"></stop>
	</linearGradient>
	<linearGradient id="svgi_r_5___Gradient2" gradientUnits="userSpaceOnUse" x1="1714.54" y1="1533.71" x2="1647.14" y2="1436.24">
		<stop class="stop0" offset="0" stop-opacity="1" stop-color="rgb(25,98,173)"></stop>
		<stop class="stop1" offset="1" stop-opacity="1" stop-color="rgb(96,137,180)"></stop>
	</linearGradient>
	<linearGradient id="svgi_r_5___Gradient3" gradientUnits="userSpaceOnUse" x1="228.8" y1="985.44" x2="614.356" y2="695.972">
		<stop class="stop0" offset="0" stop-opacity="1" stop-color="rgb(33,73,122)"></stop>
		<stop class="stop1" offset="1" stop-opacity="1" stop-color="rgb(55,120,183)"></stop>
	</linearGradient>
	<linearGradient id="svgi_r_5___Gradient4" gradientUnits="userSpaceOnUse" x1="1797.21" y1="854.112" x2="1770.72" y2="903.31">
		<stop class="stop0" offset="0" stop-opacity="1" stop-color="rgb(65,120,173)"></stop>
		<stop class="stop1" offset="1" stop-opacity="1" stop-color="rgb(163,177,198)"></stop>
	</linearGradient>
	<linearGradient id="svgi_r_5___Gradient5" gradientUnits="userSpaceOnUse" x1="166.155" y1="1297.65" x2="129.453" y2="1194.01">
		<stop class="stop0" offset="0" stop-opacity="1" stop-color="rgb(108,130,162)"></stop>
		<stop class="stop1" offset="1" stop-opacity="1" stop-color="rgb(171,182,197)"></stop>
	</linearGradient>
	<linearGradient id="svgi_r_5___Gradient6" gradientUnits="userSpaceOnUse" x1="323.105" y1="1054" x2="326.285" y2="1132.54">
		<stop class="stop0" offset="0" stop-opacity="1" stop-color="rgb(121,149,180)"></stop>
		<stop class="stop1" offset="1" stop-opacity="1" stop-color="rgb(156,177,200)"></stop>
	</linearGradient>
	<linearGradient id="svgi_r_5___Gradient7" gradientUnits="userSpaceOnUse" x1="290.693" y1="1386.2" x2="296.176" y2="1040.29">
		<stop class="stop0" offset="0" stop-opacity="1" stop-color="rgb(25,59,109)"></stop>
		<stop class="stop1" offset="1" stop-opacity="1" stop-color="rgb(40,96,155)"></stop>
	</linearGradient>
	<linearGradient id="svgi_r_5___Gradient8" gradientUnits="userSpaceOnUse" x1="1021.62" y1="943.39" x2="1197.61" y2="1098.31">
		<stop class="stop0" offset="0" stop-opacity="1" stop-color="rgb(123,174,205)"></stop>
		<stop class="stop1" offset="1" stop-opacity="1" stop-color="rgb(255,255,249)"></stop>
	</linearGradient>
	<linearGradient id="svgi_r_5___Gradient9" gradientUnits="userSpaceOnUse" x1="1404.32" y1="962.707" x2="1407.66" y2="977.741">
		<stop class="stop0" offset="0" stop-opacity="1" stop-color="rgb(77,106,148)"></stop>
		<stop class="stop1" offset="1" stop-opacity="1" stop-color="rgb(113,135,167)"></stop>
	</linearGradient>
	<linearGradient id="svgi_r_5___Gradient10" gradientUnits="userSpaceOnUse" x1="927.007" y1="948.904" x2="1231.36" y2="1190.29">
		<stop class="stop0" offset="0" stop-opacity="1" stop-color="rgb(15,39,85)"></stop>
		<stop class="stop1" offset="1" stop-opacity="1" stop-color="rgb(37,89,145)"></stop>
	</linearGradient>
	<linearGradient id="svgi_r_5___Gradient11" gradientUnits="userSpaceOnUse" x1="1273.57" y1="1409.96" x2="1263.99" y2="1275.86">
		<stop class="stop0" offset="0" stop-opacity="1" stop-color="rgb(25,61,113)"></stop>
		<stop class="stop1" offset="1" stop-opacity="1" stop-color="rgb(34,97,159)"></stop>
	</linearGradient>
	<linearGradient id="svgi_r_5___Gradient12" gradientUnits="userSpaceOnUse" x1="919.829" y1="1238.4" x2="1106.72" y2="1185.01">
		<stop class="stop0" offset="0" stop-opacity="1" stop-color="rgb(102,160,197)"></stop>
		<stop class="stop1" offset="1" stop-opacity="1" stop-color="rgb(191,217,231)"></stop>
	</linearGradient>
	<linearGradient id="svgi_r_5___Gradient13" gradientUnits="userSpaceOnUse" x1="950.001" y1="1252.16" x2="1334.16" y2="1463.23">
		<stop class="stop0" offset="0" stop-opacity="1" stop-color="rgb(22,59,110)"></stop>
		<stop class="stop1" offset="1" stop-opacity="1" stop-color="rgb(43,118,191)"></stop>
	</linearGradient>
	<linearGradient id="svgi_r_5___Gradient14" gradientUnits="userSpaceOnUse" x1="1442.09" y1="943.866" x2="1434.88" y2="981.32">
		<stop class="stop0" offset="0" stop-opacity="1" stop-color="rgb(44,76,109)"></stop>
		<stop class="stop1" offset="1" stop-opacity="1" stop-color="rgb(101,124,163)"></stop>
	</linearGradient>
	<linearGradient id="svgi_r_5___Gradient15" gradientUnits="userSpaceOnUse" x1="1364.15" y1="930.281" x2="1352.92" y2="984.747">
		<stop class="stop0" offset="0" stop-opacity="1" stop-color="rgb(148,191,216)"></stop>
		<stop class="stop1" offset="1" stop-opacity="1" stop-color="rgb(200,221,229)"></stop>
	</linearGradient>
	<linearGradient id="svgi_r_5___Gradient16" gradientUnits="userSpaceOnUse" x1="1272.89" y1="901.643" x2="1271.1" y2="990.224">
		<stop class="stop0" offset="0" stop-opacity="1" stop-color="rgb(143,187,214)"></stop>
		<stop class="stop1" offset="1" stop-opacity="1" stop-color="rgb(197,220,229)"></stop>
	</linearGradient>
	<linearGradient id="svgi_r_5___Gradient17" gradientUnits="userSpaceOnUse" x1="1330.69" y1="1176.51" x2="1223.95" y2="1130.01">
		<stop class="stop0" offset="0" stop-opacity="1" stop-color="rgb(193,217,229)"></stop>
		<stop class="stop1" offset="1" stop-opacity="1" stop-color="rgb(241,246,246)"></stop>
	</linearGradient>
	<linearGradient id="svgi_r_5___Gradient18" gradientUnits="userSpaceOnUse" x1="1175.03" y1="1144.06" x2="1385.89" y2="1164.87">
		<stop class="stop0" offset="0" stop-opacity="1" stop-color="rgb(32,100,170)"></stop>
		<stop class="stop1" offset="1" stop-opacity="1" stop-color="rgb(77,134,182)"></stop>
	</linearGradient>
	<linearGradient id="svgi_r_5___Gradient19" gradientUnits="userSpaceOnUse" x1="1645.9" y1="969.418" x2="1124.34" y2="1321.1">
		<stop class="stop0" offset="0" stop-opacity="1" stop-color="rgb(211,222,229)"></stop>
		<stop class="stop1" offset="1" stop-opacity="1" stop-color="rgb(252,255,255)"></stop>
	</linearGradient>
	<linearGradient id="svgi_r_5___Gradient20" gradientUnits="userSpaceOnUse" x1="743.579" y1="1520.15" x2="1703.6" y2="732.877">
		<stop class="stop0" offset="0" stop-opacity="1" stop-color="rgb(19,38,81)"></stop>
		<stop class="stop1" offset="1" stop-opacity="1" stop-color="rgb(34,98,164)"></stop>
	</linearGradient>
</defs>
<path transform="translate(0,0)" fill="url(#svgi_r_5___Gradient20)" d="M 536.227 1065.49 C 572.998 1036.1 608.126 1007.93 647.542 981.845 C 793.23 885.425 962.919 804.016 1135.56 774.252 C 1391.47 730.129 1598.45 826.05 1807.78 959.476 C 1872.42 1000.58 1936 1043.33 1998.45 1087.69 C 1971.56 1116.86 1945.43 1145.79 1917.36 1173.84 C 1718.01 1373.07 1443.88 1542.33 1154.09 1541.19 C 960.127 1540.43 761.454 1465.24 611.542 1342.68 C 586.681 1322.36 565.191 1300.93 542.63 1278.29 L 553.709 1258.16 C 571.451 1274.86 589.886 1290.81 608.966 1305.97 C 780.748 1440.75 1022.18 1523.12 1241.19 1496.36 C 1283.32 1491.61 1324.93 1483.06 1365.52 1470.81 C 1523.21 1422.01 1655.45 1312.62 1761.69 1189.21 C 1781.47 1166.23 1799.07 1143.08 1817.72 1119.28 C 1730.78 1035.49 1628.19 960.97 1518.39 910.123 C 1508.63 905.601 1478.97 892.361 1469.25 891.489 C 1459.45 890.504 1448.39 887.138 1438.81 886.415 C 1409.22 884.178 1374.1 876.362 1344.68 877.03 C 1369.92 885.308 1394.71 892.582 1419.86 901.508 C 1539.22 943.868 1647.4 1013.63 1737.33 1102.96 C 1745.58 1110.96 1753.69 1119.09 1761.65 1127.36 C 1726.43 1172.53 1681.11 1218.27 1640.49 1258.47 C 1637.65 1261.29 1623.31 1275.15 1621.66 1276.09 C 1580.68 1315.19 1530.22 1352.25 1481.63 1381.46 C 1468.85 1389.14 1450.68 1400.01 1436.89 1406.03 C 1433.21 1412.24 1431.85 1415.4 1426.44 1420.18 C 1418.97 1424.83 1411.08 1424.91 1402.52 1423.53 L 1390.9 1427.85 C 1370.58 1435.84 1349.77 1442.55 1328.61 1447.94 C 1297.74 1457.56 1232.07 1464.82 1199.67 1463.9 C 1164.7 1465.7 1039.07 1465.74 1009.23 1456.27 C 973.672 1451.21 915.122 1432.35 881.723 1420.24 C 785.64 1385.42 690.83 1333.85 616.614 1262.85 C 600.81 1247.73 585.646 1230.59 570.888 1214.22 C 578.93 1186.75 580 1164.12 581.102 1136.09 C 580.917 1114.59 575.239 1105.34 556.539 1095.67 C 551.951 1081.98 546.913 1074.92 536.227 1065.49 z"></path>
<path transform="translate(0,0)" fill="url(#svgi_r_5___Gradient19)" d="M 1333.58 879.2 C 1335.9 877.675 1336.07 877.557 1338.66 876.574 C 1340.68 876.869 1342.63 877.061 1344.68 877.03 C 1369.92 885.308 1394.71 892.582 1419.86 901.508 C 1539.22 943.868 1647.4 1013.63 1737.33 1102.96 C 1745.58 1110.96 1753.69 1119.09 1761.65 1127.36 C 1726.43 1172.53 1681.11 1218.27 1640.49 1258.47 C 1637.65 1261.29 1623.31 1275.15 1621.66 1276.09 C 1580.68 1315.19 1530.22 1352.25 1481.63 1381.46 C 1468.85 1389.14 1450.68 1400.01 1436.89 1406.03 C 1433.21 1412.24 1431.85 1415.4 1426.44 1420.18 C 1418.97 1424.83 1411.08 1424.91 1402.52 1423.53 L 1390.9 1427.85 C 1370.58 1435.84 1349.77 1442.55 1328.61 1447.94 C 1297.74 1457.56 1232.07 1464.82 1199.67 1463.9 C 1196.19 1463.03 1194.51 1462.64 1191.23 1461.26 C 1262.38 1456.31 1314.87 1437.87 1374.16 1398.7 C 1370.35 1391.53 1363.97 1378.73 1359.6 1372.57 C 1357.57 1372.12 1357.74 1372.17 1355.96 1370.82 C 1349.98 1370.35 1328.38 1384.14 1320.48 1387.95 C 1318.96 1379.6 1320.16 1351.08 1317.68 1348.3 C 1315.05 1348.13 1312.49 1348.06 1309.85 1347.99 C 1313.15 1347.63 1314.22 1347.69 1317.3 1346.28 C 1318.89 1340.78 1317.61 1306.16 1318.29 1296.9 L 1318.39 1295.76 C 1317.55 1294.19 1316.88 1293.02 1316.34 1291.3 C 1313.29 1281.43 1304.98 1271.38 1298.86 1262.6 C 1284.76 1258.05 1281.21 1257.23 1268.89 1248.77 C 1254.53 1257.39 1239.86 1265.48 1224.92 1273.04 L 1199.06 1287.54 C 1196.2 1289.15 1181.96 1296.9 1180.17 1298.32 C 1176.3 1300.45 1166.34 1306.85 1162.91 1301.82 C 1155.57 1291.04 1136.6 1260.85 1136.98 1249.26 C 1151.5 1240.75 1166.52 1232.93 1180.92 1224.2 C 1186.8 1221.27 1193.59 1217.24 1199.33 1213.92 C 1198.5 1205.24 1198.94 1190.29 1198.96 1181.03 L 1199.13 1121.34 L 1184 1121.44 L 1184 1120 C 1182.78 1118.79 1181.35 1120.83 1178.04 1118.41 L 1177.66 1115.78 C 1180.45 1109.91 1188.07 1104.81 1194.69 1106.21 C 1207.96 1109.02 1207.41 1099.15 1220.28 1107.75 L 1221.54 1108.6 C 1225.51 1104.97 1230.66 1108.51 1235.85 1107.91 C 1241.22 1107.29 1247.52 1105.54 1252.67 1103.91 C 1247.57 1103.82 1226.88 1104.41 1224.23 1102.65 C 1223.62 1098.06 1223.58 1046.58 1224.93 1044.3 C 1225.71 1029.31 1225.18 1008.32 1225.18 992.969 L 1225.13 899.04 C 1266.33 901.018 1282.61 905.238 1320.92 918.562 L 1322.96 919.226 L 1322.67 920.03 C 1342.7 926.776 1362.01 940.23 1378.91 952.665 C 1384.27 958.488 1390.68 964.24 1396.28 970.256 C 1398.56 972.697 1405.99 981.314 1407.83 982.991 C 1411.58 982.206 1412.53 982.007 1416.02 980.552 L 1415.95 977.032 C 1416.68 972.954 1416.78 972.114 1418.35 968.348 L 1419.62 968.41 L 1421.03 971.348 L 1421.36 969.009 C 1420.93 958.212 1420.47 948.478 1419.5 937.683 L 1420.99 936.969 C 1403.42 918.298 1386.94 907.236 1365.6 894.122 C 1354.34 887.982 1345.59 883.649 1333.58 879.2 z"></path>
<path transform="translate(0,0)" fill="url(#svgi_r_5___Gradient18)" d="M 1184 1120 C 1182.78 1118.79 1181.35 1120.83 1178.04 1118.41 L 1177.66 1115.78 C 1180.45 1109.91 1188.07 1104.81 1194.69 1106.21 C 1207.96 1109.02 1207.41 1099.15 1220.28 1107.75 L 1221.54 1108.6 C 1225.51 1104.97 1230.66 1108.51 1235.85 1107.91 C 1241.22 1107.29 1247.52 1105.54 1252.67 1103.91 C 1247.57 1103.82 1226.88 1104.41 1224.23 1102.65 C 1223.62 1098.06 1223.58 1046.58 1224.93 1044.3 C 1225.1 1048.24 1225.22 1052.19 1225.28 1056.14 L 1225.04 1102.02 L 1334.13 1101.88 C 1353.03 1101.89 1378.53 1102.63 1397.01 1101.39 C 1390.99 1105.07 1364.94 1121.39 1359.45 1121.83 C 1353.24 1127.29 1329.65 1139.7 1321.28 1144.68 C 1290.69 1162.91 1255.05 1180.46 1225.17 1199.41 C 1216.67 1204.44 1208.05 1209.28 1199.33 1213.92 C 1198.5 1205.24 1198.94 1190.29 1198.96 1181.03 L 1199.13 1121.34 L 1184 1121.44 L 1184 1120 z"></path>
<path transform="translate(0,0)" fill="url(#svgi_r_5___Gradient17)" d="M 1225.08 1121.72 C 1263.63 1120.45 1320.67 1120.71 1359.45 1121.83 C 1353.24 1127.29 1329.65 1139.7 1321.28 1144.68 C 1290.69 1162.91 1255.05 1180.46 1225.17 1199.41 L 1225.08 1121.72 z"></path>
<path transform="translate(0,0)" fill="rgb(25,61,111)" d="M 1349.28 1199.11 C 1348.25 1211.16 1347.46 1218.06 1349.46 1229.85 C 1352.39 1237.16 1355.46 1245.36 1358.91 1252.34 C 1353.77 1254.95 1347.88 1257.06 1351.94 1263.85 C 1357.04 1265.76 1357.74 1264.62 1362.17 1261.69 C 1378.14 1291.25 1394.37 1320.68 1410.86 1349.96 C 1419.12 1364.74 1428.15 1380.3 1435.76 1395.47 C 1437.36 1398.66 1437.09 1402.49 1436.89 1406.03 C 1433.21 1412.24 1431.85 1415.4 1426.44 1420.18 C 1418.97 1424.83 1411.08 1424.91 1402.52 1423.53 C 1395.46 1418.58 1389.38 1406.06 1385.39 1398.34 C 1365.95 1360.82 1343.82 1324 1325.15 1286.15 C 1325.31 1282.34 1325.72 1283.14 1328.97 1279.44 C 1329.03 1275.87 1328.96 1276.94 1326.57 1273.37 C 1323.53 1272.21 1324.55 1272.55 1320.5 1274.28 C 1315.75 1273.06 1308.33 1259.08 1305.29 1254.1 C 1294.55 1251.36 1285.54 1247.72 1276.33 1241.6 C 1279.75 1239.08 1283.99 1236.56 1287.62 1234.26 C 1292.7 1241.3 1294.87 1242.11 1302.56 1245.42 L 1297.11 1228.31 L 1330.88 1210.03 C 1332.53 1213.31 1334.09 1217.72 1337.3 1219.08 L 1338.67 1217.88 C 1339.66 1213.6 1338.48 1210.31 1337.54 1205.94 C 1341.23 1203.63 1345.48 1201.3 1349.28 1199.11 z"></path>
<path transform="translate(0,0)" fill="rgb(38,92,152)" d="M 1349.46 1229.85 C 1352.39 1237.16 1355.46 1245.36 1358.91 1252.34 C 1353.77 1254.95 1347.88 1257.06 1351.94 1263.85 C 1357.04 1265.76 1357.74 1264.62 1362.17 1261.69 C 1378.14 1291.25 1394.37 1320.68 1410.86 1349.96 C 1419.12 1364.74 1428.15 1380.3 1435.76 1395.47 C 1437.36 1398.66 1437.09 1402.49 1436.89 1406.03 C 1433.21 1412.24 1431.85 1415.4 1426.44 1420.18 C 1419.41 1403.43 1396.41 1364.59 1386.43 1346.66 C 1374.02 1324.06 1361.39 1301.57 1348.56 1279.19 C 1344.18 1271.54 1334.24 1253.28 1329.01 1247.41 C 1325.72 1246.61 1325.23 1246.9 1322.69 1244.93 L 1322.72 1244.17 C 1328.11 1240.12 1342.45 1233.75 1349.46 1229.85 z"></path>
<path transform="translate(0,0)" fill="url(#svgi_r_5___Gradient16)" d="M 1225.13 899.04 C 1266.33 901.018 1282.61 905.238 1320.92 918.562 L 1322.96 919.226 L 1322.67 920.03 C 1319.32 923.745 1320.2 943.517 1319.13 949.626 C 1315.14 972.479 1296.84 975.381 1277.45 977.854 C 1284.28 978.537 1289.34 978.955 1296.03 980.407 L 1297.9 980.805 C 1299.31 981.112 1298.76 980.81 1299.7 981.701 C 1294.46 982.38 1293.43 978.787 1286.6 983.092 C 1277.82 988.631 1268.65 994.086 1257.92 990.724 C 1249.73 988.162 1237.84 979.131 1229 980.441 C 1223.3 988.673 1231.74 1046.29 1225.28 1056.14 C 1225.22 1052.19 1225.1 1048.24 1224.93 1044.3 C 1225.71 1029.31 1225.18 1008.32 1225.18 992.969 L 1225.13 899.04 z"></path>
<path transform="translate(0,0)" fill="url(#svgi_r_5___Gradient15)" d="M 1322.67 920.03 C 1342.7 926.776 1362.01 940.23 1378.91 952.665 C 1384.27 958.488 1390.68 964.24 1396.28 970.256 C 1398.56 972.697 1405.99 981.314 1407.83 982.991 L 1408.06 984.375 C 1402.51 981.621 1402.13 977.543 1397.56 976.011 C 1391.38 977.994 1390.28 979.31 1383.56 979.884 L 1381.72 981.387 C 1382.07 985.808 1384.67 987.964 1387.88 991.165 C 1385.62 990.16 1385.39 989.742 1383.5 988.093 C 1383.81 991.021 1384.06 989.986 1383.13 992.54 C 1380.41 990.932 1381.63 991.946 1380.03 988.691 C 1372.4 982.22 1371.52 988.826 1362.58 987.485 C 1358.69 987.146 1352.07 981.543 1348.47 981.659 C 1331.57 982.205 1327.54 1000.34 1324.98 1011.84 C 1318.59 1003.06 1334.45 987.236 1340.11 981.994 C 1349.75 979.909 1356.38 979.001 1366.21 977.899 C 1354.64 976.646 1342.43 976.857 1333.39 968.423 C 1321.32 957.165 1322.85 935.675 1322.67 920.03 z"></path>
<path transform="translate(0,0)" fill="rgb(211,228,235)" d="M 1380.03 988.691 L 1376.91 983.691 L 1377.24 982.563 C 1380.57 984.442 1381.05 985.271 1383.5 988.093 C 1383.81 991.021 1384.06 989.986 1383.13 992.54 C 1380.41 990.932 1381.63 991.946 1380.03 988.691 z"></path>
<path transform="translate(0,0)" fill="rgb(38,92,152)" d="M 1309.85 1347.99 C 1313.15 1347.63 1314.22 1347.69 1317.3 1346.28 C 1318.89 1340.78 1317.61 1306.16 1318.29 1296.9 L 1318.39 1295.76 C 1330.62 1317.84 1349.11 1350.29 1359.6 1372.57 C 1357.57 1372.12 1357.74 1372.17 1355.96 1370.82 C 1349.98 1370.35 1328.38 1384.14 1320.48 1387.95 C 1318.96 1379.6 1320.16 1351.08 1317.68 1348.3 C 1315.05 1348.13 1312.49 1348.06 1309.85 1347.99 z"></path>
<path transform="translate(0,0)" fill="rgb(202,214,225)" d="M 1737.33 1102.96 C 1745.58 1110.96 1753.69 1119.09 1761.65 1127.36 C 1726.43 1172.53 1681.11 1218.27 1640.49 1258.47 C 1637.65 1261.29 1623.31 1275.15 1621.66 1276.09 L 1620.83 1274.93 C 1622.96 1271.34 1640 1256.2 1643.71 1252.51 C 1664.01 1232.33 1683.77 1213.09 1701.89 1190.84 C 1710.25 1180.57 1719.04 1176.85 1725.25 1161.75 C 1729.28 1151.93 1718.23 1151.05 1714.45 1139.75 C 1714.83 1126.02 1737.83 1121.13 1740.77 1117.64 C 1742.21 1112.7 1739.38 1108.02 1737.33 1102.96 z"></path>
<path transform="translate(0,0)" fill="url(#svgi_r_5___Gradient14)" d="M 1420.99 936.969 C 1435.43 951.619 1448.15 967.87 1458.9 985.407 L 1450.6 993.142 C 1438.44 1005.2 1438.27 996.188 1423.79 992.313 L 1422.43 991.962 C 1421.28 985.111 1421.24 980.11 1421.03 973.176 L 1421.03 971.348 L 1421.36 969.009 C 1420.93 958.212 1420.47 948.478 1419.5 937.683 L 1420.99 936.969 z"></path>
<path transform="translate(0,0)" fill="rgb(75,121,172)" d="M 1421.36 969.009 C 1426.52 968.401 1430.39 968.932 1434.41 972.572 L 1433.98 974.116 C 1430.11 975.273 1424.87 974.346 1421.03 973.176 L 1421.03 971.348 L 1421.36 969.009 z"></path>
<path transform="translate(0,0)" fill="rgb(129,152,182)" d="M 1459.65 987.187 C 1466.76 997.765 1475.38 1015.52 1480.16 1027.74 C 1475.65 1027.54 1460.44 1026.43 1456.98 1026.87 C 1456.54 1018.74 1450.1 1009.48 1445.78 1002.43 L 1452.14 995.171 L 1459.65 987.187 z"></path>
<path transform="translate(0,0)" fill="rgb(250,251,252)" d="M 1328.61 1447.94 C 1330.55 1445.96 1374.23 1418.6 1381.66 1413.42 C 1384.66 1418.49 1387.28 1423.19 1390.9 1427.85 C 1370.58 1435.84 1349.77 1442.55 1328.61 1447.94 z"></path>
<path transform="translate(0,0)" fill="rgb(202,214,225)" d="M 1365.6 894.122 L 1365.89 892.903 C 1405.99 909.46 1454.68 967.931 1472.17 1006.62 C 1474.45 1011.66 1481.68 1023.99 1481.1 1028.83 C 1478.18 1029.9 1478.53 1028.83 1476.58 1028.65 C 1463.83 1027.48 1442.31 1030.97 1432.01 1021.34 C 1430.77 1017.6 1433.59 1013.65 1436.82 1012.8 C 1441.08 1025.15 1444.37 1027.36 1456.98 1026.87 C 1460.44 1026.43 1475.65 1027.54 1480.16 1027.74 C 1475.38 1015.52 1466.76 997.765 1459.65 987.187 L 1452.14 995.171 L 1450.6 993.142 L 1458.9 985.407 C 1448.15 967.87 1435.43 951.619 1420.99 936.969 C 1403.42 918.298 1386.94 907.236 1365.6 894.122 z"></path>
<path transform="translate(0,0)" fill="rgb(129,152,182)" d="M 1407.83 982.991 C 1411.58 982.206 1412.53 982.007 1416.02 980.552 C 1415.64 984.521 1415.31 988.766 1414.72 992.689 C 1412.66 989.991 1410.39 986.772 1408.06 984.375 L 1407.83 982.991 z"></path>
<path transform="translate(0,0)" fill="rgb(38,92,152)" d="M 1468.61 1033.13 L 1482.34 1032.84 L 1485.37 1042.02 C 1511.71 1122.76 1504.83 1210.66 1466.24 1286.32 C 1454.29 1309.45 1439.59 1331.05 1422.44 1350.64 C 1411.74 1330.21 1399.44 1310.01 1389.09 1289.73 C 1384.67 1281.98 1380.07 1274.29 1376.5 1266.12 C 1373.97 1262.7 1371.24 1259.41 1368.57 1256.11 C 1366.62 1242.16 1362.13 1237.82 1358.92 1224.85 C 1357.31 1218.34 1359.63 1204.53 1360.63 1197.23 C 1379.73 1184.77 1404.97 1172.74 1424.75 1160.74 C 1433.67 1155.32 1450.43 1147.55 1457.17 1140.33 C 1458.71 1137.18 1457.91 1135.36 1457.23 1131.87 C 1455.24 1128.26 1453.13 1124.94 1450.95 1121.46 C 1447.04 1115.56 1443.64 1108.42 1440.42 1102.06 C 1446.13 1101.89 1452.19 1103.87 1456.5 1099.94 L 1456.21 1095.48 C 1453.56 1086.71 1451.06 1077.9 1448.72 1069.04 L 1448.15 1069.41 C 1445.91 1063.72 1443.39 1053.58 1440.8 1046.47 L 1455.88 1058.31 C 1439.97 1037.99 1443.36 1033.1 1468.61 1033.13 z"></path>
<path transform="translate(0,0)" fill="rgb(142,181,208)" d="M 1460.35 1123.75 C 1465.28 1179.36 1453.41 1235.18 1426.26 1283.97 C 1428.12 1262.16 1426.59 1221.17 1426.83 1197.38 C 1415.61 1205.01 1401.9 1214.87 1390.5 1221.78 C 1389.77 1227.56 1389.99 1233.28 1390.07 1239.1 L 1376.99 1239.03 C 1377.08 1247.08 1377.56 1258.4 1376.5 1266.12 C 1373.97 1262.7 1371.24 1259.41 1368.57 1256.11 C 1366.62 1242.16 1362.13 1237.82 1358.92 1224.85 C 1357.31 1218.34 1359.63 1204.53 1360.63 1197.23 C 1379.73 1184.77 1404.97 1172.74 1424.75 1160.74 C 1433.67 1155.32 1450.43 1147.55 1457.17 1140.33 C 1458.71 1137.18 1457.91 1135.36 1457.23 1131.87 L 1457.78 1131.72 C 1460.03 1129.57 1459.89 1126.98 1460.35 1123.75 z"></path>
<path transform="translate(0,0)" fill="rgb(75,121,172)" d="M 1468.61 1033.13 L 1482.34 1032.84 L 1485.37 1042.02 C 1479.1 1038.4 1485.57 1033.4 1475.37 1034.82 C 1472.72 1039.87 1476.07 1046.4 1475.27 1048.53 C 1466.89 1070.9 1468.06 1063.02 1482.9 1083.37 C 1477.31 1078.94 1470.98 1075.8 1467.31 1071.34 C 1466.81 1071.07 1466.32 1070.8 1465.83 1070.53 C 1462.49 1072.57 1461.21 1075.12 1457.91 1076.06 C 1458.15 1073.77 1457.96 1074.61 1459.09 1072.51 L 1458.14 1071.16 C 1454.55 1071.55 1456.15 1070.91 1453.28 1073.39 C 1451.2 1080.97 1458.79 1086.67 1456.21 1095.48 C 1453.56 1086.71 1451.06 1077.9 1448.72 1069.04 L 1448.15 1069.41 C 1445.91 1063.72 1443.39 1053.58 1440.8 1046.47 L 1455.88 1058.31 C 1439.97 1037.99 1443.36 1033.1 1468.61 1033.13 z"></path>
<path transform="translate(0,0)" fill="rgb(142,181,208)" d="M 1455.88 1058.31 C 1439.97 1037.99 1443.36 1033.1 1468.61 1033.13 C 1466.96 1033.61 1462.93 1034.39 1462.86 1035.43 C 1462.4 1042.79 1458.45 1049.56 1457.68 1056.41 C 1459.66 1058.76 1466.72 1066.56 1467.31 1068.82 C 1463.78 1065.99 1460.27 1063.13 1456.77 1060.25 C 1454.06 1062.72 1449.65 1065.98 1448.72 1069.04 L 1448.15 1069.41 C 1445.91 1063.72 1443.39 1053.58 1440.8 1046.47 L 1455.88 1058.31 z"></path>
<path transform="translate(0,0)" fill="rgb(75,121,172)" d="M 1390.07 1239.1 C 1389.99 1233.28 1389.77 1227.56 1390.5 1221.78 C 1391.68 1230.48 1390.6 1281.34 1389.09 1289.73 C 1384.67 1281.98 1380.07 1274.29 1376.5 1266.12 C 1377.56 1258.4 1377.08 1247.08 1376.99 1239.03 L 1390.07 1239.1 z"></path>
<path transform="translate(0,0)" fill="rgb(142,181,208)" d="M 1450.95 1121.46 C 1454.23 1121.33 1457.12 1120.72 1459.72 1122.41 L 1460.35 1123.75 C 1459.89 1126.98 1460.03 1129.57 1457.78 1131.72 L 1457.23 1131.87 C 1455.24 1128.26 1453.13 1124.94 1450.95 1121.46 z"></path>
<path transform="translate(0,0)" fill="rgb(25,61,111)" d="M 1419.69 1102.63 C 1421.79 1100.14 1422.01 1099.31 1425.1 1098.42 C 1429.45 1100.74 1430.85 1105.45 1433.09 1110.21 L 1447.35 1135.97 C 1438.78 1140.86 1425.77 1148.64 1417.07 1152.54 C 1411.99 1156.46 1396.32 1164.85 1389.74 1168.58 L 1335.44 1199.26 C 1280.83 1230.06 1223.41 1263.69 1168.36 1293.13 L 1154.46 1267.59 C 1152.24 1264.13 1149.49 1258.63 1147.46 1254.87 C 1237.09 1205.86 1326.65 1153.32 1415.82 1103.1 C 1417.65 1103.54 1417.53 1103.2 1419.69 1102.63 z"></path>
<path transform="translate(0,0)" fill="rgb(38,92,152)" d="M 1419.69 1102.63 C 1421.79 1100.14 1422.01 1099.31 1425.1 1098.42 C 1429.45 1100.74 1430.85 1105.45 1433.09 1110.21 L 1447.35 1135.97 C 1438.78 1140.86 1425.77 1148.64 1417.07 1152.54 L 1417.11 1150.96 L 1416.81 1136.7 C 1414.93 1133.82 1415.52 1124.94 1415.55 1121.05 C 1405.63 1128.04 1376.88 1143.09 1364.51 1150.11 C 1324.07 1173.09 1283.5 1195.83 1242.81 1218.36 L 1189.44 1248.74 C 1183.21 1252.33 1160.26 1265.95 1154.46 1267.59 C 1152.24 1264.13 1149.49 1258.63 1147.46 1254.87 C 1237.09 1205.86 1326.65 1153.32 1415.82 1103.1 C 1417.65 1103.54 1417.53 1103.2 1419.69 1102.63 z"></path>
<path transform="translate(0,0)" fill="rgb(25,61,111)" d="M 1433.09 1110.21 L 1447.35 1135.97 C 1438.78 1140.86 1425.77 1148.64 1417.07 1152.54 L 1417.11 1150.96 C 1420.22 1146.73 1419.82 1124.49 1419.96 1117.98 C 1424.05 1116.36 1429.36 1112.73 1433.09 1110.21 z"></path>
<path transform="translate(0,0)" fill="rgb(75,121,172)" d="M 1419.69 1102.63 C 1421.79 1100.14 1422.01 1099.31 1425.1 1098.42 C 1429.45 1100.74 1430.85 1105.45 1433.09 1110.21 C 1429.36 1112.73 1424.05 1116.36 1419.96 1117.98 C 1420.12 1112.32 1420.31 1108.33 1419.69 1102.63 z"></path>
<path transform="translate(0,0)" fill="rgb(129,152,182)" d="M 1419.69 1102.63 C 1420.31 1108.33 1420.12 1112.32 1419.96 1117.98 C 1419.82 1124.49 1420.22 1146.73 1417.11 1150.96 L 1416.81 1136.7 C 1417.42 1128.34 1415.78 1113.22 1415.82 1103.1 C 1417.65 1103.54 1417.53 1103.2 1419.69 1102.63 z"></path>
<path transform="translate(0,0)" fill="rgb(202,214,225)" d="M 1448.15 1069.41 L 1448.72 1069.04 C 1451.06 1077.9 1453.56 1086.71 1456.21 1095.48 L 1456.5 1099.94 C 1452.19 1103.87 1446.13 1101.89 1440.42 1102.06 C 1436.85 1097.4 1434.35 1088.55 1428.41 1086.68 C 1424.95 1087.35 1424.6 1087.88 1421.45 1087 C 1421.42 1084.79 1421.1 1082.78 1421.89 1080.91 L 1422.41 1086.63 C 1429.73 1084.04 1437.36 1093.95 1445.55 1087.76 C 1454.56 1080.94 1446.13 1077.36 1448.15 1069.41 z"></path>
<path transform="translate(0,0)" fill="url(#svgi_r_5___Gradient13)" d="M 1015.95 1121.11 C 1033.08 1119.11 1067.71 1119.64 1085.34 1119.74 L 1184 1120 L 1184 1121.44 L 1199.13 1121.34 L 1198.96 1181.03 C 1198.94 1190.29 1198.5 1205.24 1199.33 1213.92 C 1193.59 1217.24 1186.8 1221.27 1180.92 1224.2 C 1166.52 1232.93 1151.5 1240.75 1136.98 1249.26 C 1136.6 1260.85 1155.57 1291.04 1162.91 1301.82 C 1166.34 1306.85 1176.3 1300.45 1180.17 1298.32 C 1181.96 1296.9 1196.2 1289.15 1199.06 1287.54 L 1224.92 1273.04 C 1239.86 1265.48 1254.53 1257.39 1268.89 1248.77 C 1281.21 1257.23 1284.76 1258.05 1298.86 1262.6 C 1304.98 1271.38 1313.29 1281.43 1316.34 1291.3 C 1316.88 1293.02 1317.55 1294.19 1318.39 1295.76 L 1318.29 1296.9 C 1317.61 1306.16 1318.89 1340.78 1317.3 1346.28 C 1314.22 1347.69 1313.15 1347.63 1309.85 1347.99 C 1312.49 1348.06 1315.05 1348.13 1317.68 1348.3 C 1320.16 1351.08 1318.96 1379.6 1320.48 1387.95 C 1328.38 1384.14 1349.98 1370.35 1355.96 1370.82 C 1357.74 1372.17 1357.57 1372.12 1359.6 1372.57 C 1363.97 1378.73 1370.35 1391.53 1374.16 1398.7 C 1314.87 1437.87 1262.38 1456.31 1191.23 1461.26 C 1143.94 1462.69 1103.73 1458.82 1058.59 1443.42 C 1002.14 1424.59 952.288 1389.93 914.975 1343.57 C 907.765 1334.57 897.354 1320.49 892.31 1310.14 C 900.699 1315.3 914.99 1346.48 923.357 1348.63 C 929.616 1343.66 927.127 1323.16 932.423 1315.45 C 934.901 1311.84 943.904 1298.04 947.874 1296.72 C 955.556 1303.69 960.955 1313.81 968.886 1321.55 C 969.516 1304.75 967.395 1269.42 969.649 1254.71 C 969.671 1248.05 969.62 1242.27 970.289 1235.63 C 963.271 1235.86 956.954 1236.18 949.939 1235.63 L 947.132 1235.79 L 927.936 1235.74 L 927.842 1261.02 C 905.648 1209.32 902.684 1175.81 906.241 1121.25 C 942.323 1121.46 979.982 1121.92 1015.95 1121.11 z"></path>
<path transform="translate(0,0)" fill="url(#svgi_r_5___Gradient12)" d="M 1015.95 1121.11 C 1033.08 1119.11 1067.71 1119.64 1085.34 1119.74 L 1184 1120 L 1184 1121.44 L 1199.13 1121.34 L 1198.96 1181.03 C 1198.94 1190.29 1198.5 1205.24 1199.33 1213.92 C 1193.59 1217.24 1186.8 1221.27 1180.92 1224.2 C 1166.52 1232.93 1151.5 1240.75 1136.98 1249.26 L 1135.81 1248.82 C 1133.74 1252.58 1135.11 1255.67 1136.24 1260.22 C 1133.06 1260.97 1110.02 1260.54 1105.28 1260.51 C 1105.39 1255.63 1106.36 1238.47 1103.91 1235.48 C 1103.37 1244.26 1103.7 1253.43 1103.85 1262.26 C 1094.15 1261.96 1084.45 1261.84 1074.75 1261.9 C 1074.73 1280.04 1074.93 1298.64 1074.08 1316.73 C 1069.35 1316.05 1061.81 1316.29 1056.84 1316.27 L 1056.85 1181.15 C 1052.42 1181.3 1044.41 1182.16 1041.1 1180.06 C 1040.97 1177.47 1040.92 1175.06 1040.89 1172.47 C 1037.28 1169.43 1036.88 1173.43 1032.65 1170.68 C 1032.31 1165.94 1032.72 1162.05 1028.83 1159.01 L 1027.68 1159.39 C 1025.87 1162.25 1026.59 1166.82 1024.55 1171.07 L 1023 1171.06 C 1020.59 1167.95 1021.06 1165.53 1020.99 1161.51 C 1020.38 1159.86 1017.66 1154.98 1017.39 1153.52 C 1016.09 1146.33 1016.32 1137.51 1015.79 1129.93 C 1015.31 1137.07 1016.02 1168.38 1013.77 1171.41 L 1011.96 1171.86 L 1008.1 1170.41 C 1003.73 1171.53 1005.18 1170.31 1003.06 1173.47 C 1003.09 1175.91 1003.1 1177.65 1002.95 1180.1 C 997.462 1183.55 988.077 1179.18 986.542 1182.64 C 984.728 1206.63 985.873 1245.64 985.975 1270.34 C 985.43 1281.78 986.526 1294.53 985.743 1305.06 L 970.777 1305 C 970.826 1289.08 971.855 1249.21 970.289 1235.63 C 963.271 1235.86 956.954 1236.18 949.939 1235.63 L 947.132 1235.79 L 927.936 1235.74 L 927.842 1261.02 C 905.648 1209.32 902.684 1175.81 906.241 1121.25 C 942.323 1121.46 979.982 1121.92 1015.95 1121.11 z"></path>
<path transform="translate(0,0)" fill="rgb(38,92,152)" d="M 1015.95 1121.11 C 1033.08 1119.11 1067.71 1119.64 1085.34 1119.74 L 1184 1120 L 1184 1121.44 L 1199.13 1121.34 L 1198.96 1181.03 C 1198.94 1190.29 1198.5 1205.24 1199.33 1213.92 C 1193.59 1217.24 1186.8 1221.27 1180.92 1224.2 C 1166.52 1232.93 1151.5 1240.75 1136.98 1249.26 L 1135.81 1248.82 C 1133.74 1252.58 1135.11 1255.67 1136.24 1260.22 C 1133.06 1260.97 1110.02 1260.54 1105.28 1260.51 C 1105.39 1255.63 1106.36 1238.47 1103.91 1235.48 C 1103.38 1228.46 1102.72 1188.27 1104.92 1184 C 1102.52 1182.54 1102.42 1184.2 1101.04 1182.15 C 1093.74 1171.38 1089.96 1156.73 1089.09 1143.85 C 1088.61 1136.74 1089.41 1130.34 1089.48 1123.49 C 1096.93 1123.77 1108.61 1122.48 1116.46 1121.84 C 1087.4 1119.18 1046.59 1123.76 1015.95 1121.11 z"></path>
<path transform="translate(0,0)" fill="rgb(250,251,252)" d="M 1184 1121.44 L 1199.13 1121.34 L 1198.96 1181.03 C 1198.94 1190.29 1198.5 1205.24 1199.33 1213.92 C 1193.59 1217.24 1186.8 1221.27 1180.92 1224.2 C 1181.09 1219.06 1182.05 1214.85 1178.78 1211.32 C 1176.48 1211.47 1175.56 1211.51 1173.27 1211.35 C 1166.05 1204.56 1172.65 1167.44 1169.25 1156.81 L 1166.99 1156.26 L 1163.97 1155.21 L 1163.82 1133.08 L 1154.34 1141.22 L 1154.1 1121.47 C 1164.06 1121.63 1174.03 1121.62 1184 1121.44 z"></path>
<path transform="translate(0,0)" fill="rgb(211,228,235)" d="M 1116.46 1121.84 C 1126.18 1121.19 1138.91 1121.42 1148.83 1121.52 L 1148.59 1145.89 C 1143.22 1150.28 1111.72 1175.2 1109.8 1178.63 L 1109.66 1183.34 C 1107.1 1184.82 1108.47 1184.26 1104.92 1184 C 1102.52 1182.54 1102.42 1184.2 1101.04 1182.15 C 1093.74 1171.38 1089.96 1156.73 1089.09 1143.85 C 1088.61 1136.74 1089.41 1130.34 1089.48 1123.49 C 1096.93 1123.77 1108.61 1122.48 1116.46 1121.84 z"></path>
<path transform="translate(0,0)" fill="rgb(129,152,182)" d="M 1163.59 1160.02 L 1165.11 1167.38 C 1165.12 1173.06 1165.26 1175.93 1164.09 1181.6 L 1163.36 1181.6 C 1162.36 1174.91 1162.69 1166.72 1163.59 1160.02 z"></path>
<path transform="translate(0,0)" fill="rgb(211,228,235)" d="M 1163.97 1155.21 L 1166.99 1156.26 C 1166.34 1159.96 1165.71 1163.67 1165.11 1167.38 L 1163.59 1160.02 L 1163.97 1155.21 z"></path>
<path transform="translate(0,0)" fill="rgb(25,61,111)" d="M 1015.79 1129.93 C 1018.6 1128.8 1017.22 1128.75 1020.01 1129.63 C 1022.37 1135.56 1021.01 1154.23 1020.99 1161.51 C 1020.38 1159.86 1017.66 1154.98 1017.39 1153.52 C 1016.09 1146.33 1016.32 1137.51 1015.79 1129.93 z"></path>
<path transform="translate(0,0)" fill="rgb(25,61,111)" d="M 947.132 1235.79 C 946.911 1230.28 946.208 1225.31 948 1220.2 L 949.115 1220.47 C 950.711 1225.82 950.147 1230.04 949.939 1235.63 L 947.132 1235.79 z"></path>
<path transform="translate(0,0)" fill="rgb(129,152,182)" d="M 1008.1 1170.41 C 1008.64 1166.59 1008.94 1165.05 1009.92 1161.32 C 1010.71 1164.8 1010.75 1169.1 1011.96 1171.86 L 1008.1 1170.41 z"></path>
<path transform="translate(0,0)" fill="rgb(25,61,111)" d="M 1103.91 1235.48 C 1106.36 1238.47 1105.39 1255.63 1105.28 1260.51 C 1110.02 1260.54 1133.06 1260.97 1136.24 1260.22 C 1135.11 1255.67 1133.74 1252.58 1135.81 1248.82 L 1136.98 1249.26 C 1136.6 1260.85 1155.57 1291.04 1162.91 1301.82 C 1166.34 1306.85 1176.3 1300.45 1180.17 1298.32 C 1180.22 1302.99 1179.6 1309.99 1181.29 1314.02 C 1183.1 1315.72 1184.61 1315.48 1187.19 1315.74 L 1188.49 1315.97 C 1189.45 1321.29 1188.94 1348.8 1188.93 1355.62 C 1192.63 1356.37 1194.04 1355.29 1198.54 1357.01 C 1200.08 1369.08 1199.32 1404.3 1199.37 1418.05 C 1135.76 1419.03 1092.8 1407.9 1036.89 1378.76 L 1037.47 1378.16 C 1040.15 1379.33 1040.3 1379.55 1043.14 1379.9 L 1043.52 1377.19 C 1043.88 1377.07 1044.22 1376.89 1044.59 1376.83 C 1048.79 1376.16 1052.24 1373.18 1055.28 1370.19 C 1056.84 1368.65 1054.47 1324.66 1054.51 1317.33 C 1061.03 1317.38 1067.63 1317.65 1074.08 1316.73 C 1074.93 1298.64 1074.73 1280.04 1074.75 1261.9 C 1084.45 1261.84 1094.15 1261.96 1103.85 1262.26 C 1103.7 1253.43 1103.37 1244.26 1103.91 1235.48 z"></path>
<path transform="translate(0,0)" fill="rgb(38,92,152)" d="M 1103.91 1235.48 C 1106.36 1238.47 1105.39 1255.63 1105.28 1260.51 C 1110.02 1260.54 1133.06 1260.97 1136.24 1260.22 C 1135.11 1255.67 1133.74 1252.58 1135.81 1248.82 L 1136.98 1249.26 C 1136.6 1260.85 1155.57 1291.04 1162.91 1301.82 C 1166.34 1306.85 1176.3 1300.45 1180.17 1298.32 C 1180.22 1302.99 1179.6 1309.99 1181.29 1314.02 C 1183.1 1315.72 1184.61 1315.48 1187.19 1315.74 C 1178.86 1316.43 1162.03 1315.93 1153.14 1315.93 C 1153.39 1349.53 1151.55 1381.44 1151.5 1414.46 C 1145.75 1414.15 1143.44 1413.67 1137.82 1412.53 C 1138.09 1405.94 1139.24 1400.51 1139 1393.11 C 1138.48 1377.4 1137.66 1361.81 1137.41 1346.08 L 1136.71 1262.97 C 1125.74 1263.05 1114.81 1263.02 1103.85 1262.26 C 1103.7 1253.43 1103.37 1244.26 1103.91 1235.48 z"></path>
<path transform="translate(0,0)" fill="rgb(38,92,152)" d="M 1120.98 1291.52 C 1124.03 1291.78 1124.2 1291.6 1126.93 1292.85 C 1128.94 1295.58 1128.28 1299.57 1128.18 1303.18 C 1124.91 1303.14 1124.84 1303.35 1121.89 1302.13 C 1120.01 1299.41 1120.79 1295.08 1120.98 1291.52 z"></path>
<path transform="translate(0,0)" fill="rgb(142,181,208)" d="M 1083.2 1291.75 C 1085.85 1291.98 1085.96 1291.97 1088.47 1292.81 C 1090.37 1296.61 1089.5 1298.66 1089.26 1303.35 C 1086.44 1303.16 1086.54 1303.23 1083.94 1302.18 C 1082.13 1299.37 1082.95 1295.31 1083.2 1291.75 z"></path>
<path transform="translate(0,0)" fill="rgb(38,92,152)" d="M 1107.44 1292.48 C 1112.21 1292.97 1111.23 1292.11 1113.74 1294.85 C 1114.46 1298.32 1113.7 1300.35 1112.96 1303.8 L 1108.55 1302.58 C 1106.57 1299.83 1107.28 1296.06 1107.44 1292.48 z"></path>
<path transform="translate(0,0)" fill="rgb(142,181,208)" d="M 1097.21 1291.33 C 1098.75 1291.74 1099.95 1292.18 1101.46 1292.7 C 1103.52 1295.66 1102.83 1299.8 1102.72 1303.62 C 1099.95 1303.28 1099.7 1303.51 1097.42 1302.02 C 1095.75 1298.81 1096.74 1295.07 1097.21 1291.33 z"></path>
<path transform="translate(0,0)" fill="rgb(38,92,152)" d="M 1122.19 1312.7 C 1123.98 1311.39 1126.49 1311.75 1127.84 1313.5 C 1129.2 1315.26 1128.91 1317.78 1127.19 1319.18 C 1126.04 1320.12 1124.46 1320.36 1123.08 1319.81 C 1121.7 1319.25 1120.72 1317.99 1120.54 1316.52 C 1120.35 1315.04 1120.98 1313.58 1122.19 1312.7 z"></path>
<path transform="translate(0,0)" fill="rgb(75,121,172)" d="M 1122.19 1275.83 C 1123.96 1274.67 1126.34 1275.06 1127.65 1276.73 C 1128.96 1278.4 1128.77 1280.8 1127.21 1282.25 C 1126.08 1283.3 1124.45 1283.62 1123.01 1283.09 C 1121.56 1282.55 1120.54 1281.24 1120.36 1279.71 C 1120.19 1278.18 1120.89 1276.68 1122.19 1275.83 z"></path>
<path transform="translate(0,0)" fill="rgb(38,92,152)" d="M 1122.07 1328.81 C 1123.25 1327.88 1124.85 1327.69 1126.22 1328.32 C 1127.58 1328.95 1128.48 1330.29 1128.54 1331.79 C 1128.6 1333.3 1127.81 1334.7 1126.5 1335.44 C 1124.68 1336.47 1122.38 1335.91 1121.21 1334.18 C 1120.05 1332.44 1120.42 1330.1 1122.07 1328.81 z"></path>
<path transform="translate(0,0)" fill="rgb(142,181,208)" d="M 1083.1 1274.46 L 1088.06 1275.42 C 1090.45 1278.43 1089.62 1278.8 1089.85 1283.63 C 1087.24 1283.37 1086.62 1283.23 1084.08 1282.55 C 1082.28 1279.55 1083.03 1278.67 1083.1 1274.46 z"></path>
<path transform="translate(0,0)" fill="rgb(202,214,225)" d="M 1096.52 1274.65 C 1098.11 1274.89 1099.81 1275.24 1101.4 1275.53 C 1103.59 1278.41 1102.88 1279.15 1103.22 1283.52 L 1098.42 1282.92 C 1095.85 1280.1 1096.75 1279.67 1096.52 1274.65 z"></path>
<path transform="translate(0,0)" fill="rgb(142,181,208)" d="M 1083.44 1311.3 L 1088 1312.28 C 1090.32 1315.54 1089.42 1315.8 1089.32 1320.87 C 1087.72 1320.41 1086.05 1319.83 1084.46 1319.31 C 1082.5 1315.97 1083.26 1315.97 1083.44 1311.3 z"></path>
<path transform="translate(0,0)" fill="rgb(142,181,208)" d="M 1083.92 1343.74 C 1085.46 1342.4 1087.79 1342.53 1089.17 1344.04 C 1090.55 1345.55 1090.46 1347.89 1088.98 1349.29 C 1088 1350.23 1086.58 1350.56 1085.28 1350.16 C 1083.98 1349.76 1083 1348.68 1082.72 1347.35 C 1082.44 1346.02 1082.9 1344.64 1083.92 1343.74 z"></path>
<path transform="translate(0,0)" fill="rgb(38,92,152)" d="M 1108.14 1327.44 C 1109.81 1327.76 1111.3 1328.16 1112.95 1328.57 C 1114.71 1331.44 1113.91 1332.52 1113.72 1336.64 C 1111.51 1336.09 1110.79 1335.74 1108.69 1334.84 C 1107.13 1331.47 1107.77 1331.75 1108.14 1327.44 z"></path>
<path transform="translate(0,0)" fill="rgb(38,92,152)" d="M 1121.7 1344.8 C 1122.48 1343.73 1123.79 1343.17 1125.11 1343.35 C 1126.42 1343.53 1127.53 1344.41 1128.01 1345.65 C 1128.48 1346.89 1128.23 1348.29 1127.37 1349.3 C 1126.1 1350.77 1123.89 1350.98 1122.37 1349.77 C 1120.85 1348.56 1120.55 1346.37 1121.7 1344.8 z"></path>
<path transform="translate(0,0)" fill="rgb(38,92,152)" d="M 1108.48 1313.68 C 1109.93 1312.31 1112.23 1312.37 1113.6 1313.83 C 1114.97 1315.28 1114.91 1317.57 1113.46 1318.94 C 1112.01 1320.32 1109.71 1320.26 1108.33 1318.81 C 1106.96 1317.35 1107.02 1315.06 1108.48 1313.68 z"></path>
<path transform="translate(0,0)" fill="rgb(38,92,152)" d="M 1109.55 1343.79 C 1111.06 1343.12 1112.82 1343.67 1113.7 1345.06 C 1114.58 1346.45 1114.3 1348.28 1113.05 1349.35 C 1112.06 1350.2 1110.66 1350.39 1109.48 1349.84 C 1108.3 1349.29 1107.55 1348.1 1107.56 1346.79 C 1107.58 1345.49 1108.35 1344.31 1109.55 1343.79 z"></path>
<path transform="translate(0,0)" fill="url(#svgi_r_5___Gradient11)" d="M 1268.89 1248.77 C 1281.21 1257.23 1284.76 1258.05 1298.86 1262.6 C 1304.98 1271.38 1313.29 1281.43 1316.34 1291.3 C 1316.88 1293.02 1317.55 1294.19 1318.39 1295.76 L 1318.29 1296.9 C 1317.61 1306.16 1318.89 1340.78 1317.3 1346.28 C 1314.22 1347.69 1313.15 1347.63 1309.85 1347.99 C 1312.49 1348.06 1315.05 1348.13 1317.68 1348.3 C 1320.16 1351.08 1318.96 1379.6 1320.48 1387.95 C 1284.87 1403.74 1263.59 1410.56 1224.98 1415.76 L 1225.2 1380.9 L 1225.27 1373.95 C 1223.93 1349 1224.83 1308.38 1225.07 1282.73 L 1224.92 1273.04 C 1239.86 1265.48 1254.53 1257.39 1268.89 1248.77 z"></path>
<path transform="translate(0,0)" fill="rgb(202,214,225)" d="M 1268.89 1248.77 C 1281.21 1257.23 1284.76 1258.05 1298.86 1262.6 C 1304.98 1271.38 1313.29 1281.43 1316.34 1291.3 C 1316.88 1293.02 1317.55 1294.19 1318.39 1295.76 L 1318.29 1296.9 C 1317.61 1306.16 1318.89 1340.78 1317.3 1346.28 C 1314.22 1347.69 1313.15 1347.63 1309.85 1347.99 C 1307.34 1347.64 1301.44 1347.78 1298.64 1347.76 L 1298.79 1288.29 C 1282.91 1288.82 1290.68 1284.01 1287.55 1279.92 C 1278.32 1277.55 1256.38 1276.37 1245.63 1275.44 C 1246.3 1285.3 1247.16 1347.85 1244.47 1353.42 C 1237.61 1357.52 1239.57 1366.54 1239.89 1373.7 L 1225.27 1373.95 C 1223.93 1349 1224.83 1308.38 1225.07 1282.73 L 1224.92 1273.04 C 1239.86 1265.48 1254.53 1257.39 1268.89 1248.77 z"></path>
<path transform="translate(0,0)" fill="rgb(142,181,208)" d="M 1245.63 1275.44 C 1246.3 1285.3 1247.16 1347.85 1244.47 1353.42 C 1237.61 1357.52 1239.57 1366.54 1239.89 1373.7 L 1225.27 1373.95 C 1223.93 1349 1224.83 1308.38 1225.07 1282.73 C 1225.38 1285.88 1225.31 1286.84 1226.63 1289.8 C 1228.66 1291.44 1228.91 1291.36 1231.57 1291.46 L 1240.01 1291.79 C 1242.04 1310.4 1239.56 1334.78 1243.12 1352.18 C 1247.24 1339.54 1243.6 1291.9 1245.63 1275.44 z"></path>
<path transform="translate(0,0)" fill="rgb(38,92,152)" d="M 1225.27 1373.95 L 1239.89 1373.7 C 1239.8 1378.4 1240.62 1378.16 1238.27 1380.87 C 1233.55 1382.19 1230.23 1381.01 1225.2 1380.9 L 1225.27 1373.95 z"></path>
<path transform="translate(0,0)" fill="rgb(142,181,208)" d="M 1180.17 1298.32 C 1181.96 1296.9 1196.2 1289.15 1199.06 1287.54 C 1199.1 1295.88 1200.3 1351.74 1197.63 1354.53 C 1194.54 1355.01 1192.05 1355.31 1188.93 1355.62 C 1188.94 1348.8 1189.45 1321.29 1188.49 1315.97 L 1187.19 1315.74 C 1184.61 1315.48 1183.1 1315.72 1181.29 1314.02 C 1179.6 1309.99 1180.22 1302.99 1180.17 1298.32 z"></path>
<path transform="translate(0,0)" fill="rgb(25,61,111)" d="M 970.289 1235.63 C 971.855 1249.21 970.826 1289.08 970.777 1305 L 985.743 1305.06 C 985.638 1312.77 985.626 1320.48 985.706 1328.19 C 981.838 1326.14 974.917 1322.71 970.724 1322 C 971.099 1301.92 969.693 1275.95 969.649 1254.71 C 969.671 1248.05 969.62 1242.27 970.289 1235.63 z"></path>
<path transform="translate(0,0)" fill="rgb(25,61,111)" d="M 986.542 1182.64 C 989.643 1195.56 985.404 1215.73 987.884 1229.17 C 988.501 1232.51 995.778 1237.97 993.839 1243.76 C 990.359 1254.16 986.345 1253.24 989.752 1264.09 L 989.085 1265.33 L 987.155 1265.79 L 985.975 1270.34 C 985.873 1245.64 984.728 1206.63 986.542 1182.64 z"></path>
<path transform="translate(0,0)" fill="rgb(38,92,152)" d="M 970.724 1322 C 974.917 1322.71 981.838 1326.14 985.706 1328.19 C 985.793 1331.89 985.767 1334.82 985.584 1338.51 C 980.533 1336.85 972.568 1327.14 970.724 1322 z"></path>
<path transform="translate(0,0)" fill="rgb(75,121,172)" d="M 1021.92 1244.05 C 1026.42 1244.03 1033.49 1242.7 1036.98 1244.88 C 1038.4 1245.77 1038.26 1247.73 1038.66 1249.86 C 1032.54 1249.71 1030.82 1250.85 1024.46 1249.65 C 1021.42 1247.21 1022.54 1248.82 1021.92 1244.05 z"></path>
<path transform="translate(0,0)" fill="rgb(75,121,172)" d="M 1021.6 1219.86 C 1027.14 1219.67 1033.47 1217.73 1037.74 1221.46 L 1038 1225.7 C 1029.53 1225.29 1023.45 1228.66 1021.6 1219.86 z"></path>
<path transform="translate(0,0)" fill="rgb(75,121,172)" d="M 1006.2 1244.48 C 1010.74 1244.19 1016.08 1242.8 1019.04 1246.41 L 1018.75 1249 L 1016.98 1249.82 C 1012.93 1250 1005.88 1250.54 1002.84 1247.34 L 1003.36 1245.68 L 1006.2 1244.48 z"></path>
<path transform="translate(0,0)" fill="rgb(38,92,152)" d="M 1002.89 1256.33 C 1007.02 1256.02 1015.05 1254.91 1018.53 1256.81 C 1019.99 1257.6 1019.68 1258.71 1020.21 1261.05 C 1013.53 1261.1 1003.76 1264.05 1002.89 1256.33 z"></path>
<path transform="translate(0,0)" fill="rgb(75,121,172)" d="M 1002.83 1220.1 C 1010.85 1219.68 1016.58 1217.26 1019.73 1225.21 C 1012.34 1225.21 1004.96 1228.22 1002.83 1220.1 z"></path>
<path transform="translate(0,0)" fill="rgb(75,121,172)" d="M 1022.16 1232.48 C 1027.29 1232.18 1034.03 1230.96 1037.77 1233.99 L 1037.89 1237.23 C 1031.5 1237.11 1027.52 1239.21 1022.48 1235.97 L 1022.16 1232.48 z"></path>
<path transform="translate(0,0)" fill="rgb(75,121,172)" d="M 1002.98 1232.35 C 1010.32 1232.06 1017.24 1229.76 1019.96 1237.2 C 1015.03 1237.05 1006.85 1238.66 1003.38 1235.92 L 1002.98 1232.35 z"></path>
<path transform="translate(0,0)" fill="rgb(75,121,172)" d="M 1023.61 1256.44 C 1024.93 1256.36 1026.25 1256.29 1027.57 1256.22 C 1031.78 1256.01 1035.2 1255.3 1038.15 1257.96 L 1037.92 1261.07 C 1033.76 1261.26 1024.99 1262.78 1022.84 1259.06 L 1023.61 1256.44 z"></path>
<path transform="translate(0,0)" fill="rgb(25,61,111)" d="M 993.868 1261.44 C 997.312 1261.32 996.953 1260.98 1000.03 1262.05 L 999.994 1263.41 C 998.324 1264.82 997.54 1265.37 996.146 1267.07 L 996.671 1267.34 L 993.019 1267.54 L 992.123 1266.43 L 994.016 1262.78 L 993.868 1261.44 z"></path>
<path transform="translate(0,0)" fill="rgb(25,61,111)" d="M 989.816 1214.14 L 990.442 1214.75 L 988.168 1220.37 C 987.762 1218.06 987.763 1217.58 987.771 1215.22 L 989.816 1214.14 z"></path>
<path transform="translate(0,0)" fill="url(#svgi_r_5___Gradient10)" d="M 881.796 1014.19 C 886.676 1008.15 890.557 998.584 894.65 991.718 C 902.379 978.755 913.492 959.703 925.835 950.878 C 936.266 943.42 950.331 938.299 962.074 932.842 C 1074.39 880.646 1211.34 834.538 1333.58 879.2 C 1345.59 883.649 1354.34 887.982 1365.6 894.122 C 1386.94 907.236 1403.42 918.298 1420.99 936.969 L 1419.5 937.683 C 1420.47 948.478 1420.93 958.212 1421.36 969.009 L 1421.03 971.348 L 1419.62 968.41 L 1418.35 968.348 C 1416.78 972.114 1416.68 972.954 1415.95 977.032 L 1416.02 980.552 C 1412.53 982.007 1411.58 982.206 1407.83 982.991 C 1405.99 981.314 1398.56 972.697 1396.28 970.256 C 1390.68 964.24 1384.27 958.488 1378.91 952.665 C 1362.01 940.23 1342.7 926.776 1322.67 920.03 L 1322.96 919.226 L 1320.92 918.562 C 1282.61 905.238 1266.33 901.018 1225.13 899.04 L 1225.18 992.969 C 1225.18 1008.32 1225.71 1029.31 1224.93 1044.3 C 1223.58 1046.58 1223.62 1098.06 1224.23 1102.65 C 1226.88 1104.41 1247.57 1103.82 1252.67 1103.91 C 1247.52 1105.54 1241.22 1107.29 1235.85 1107.91 C 1230.66 1108.51 1225.51 1104.97 1221.54 1108.6 L 1220.28 1107.75 C 1207.41 1099.15 1207.96 1109.02 1194.69 1106.21 C 1188.07 1104.81 1180.45 1109.91 1177.66 1115.78 L 1178.04 1118.41 C 1181.35 1120.83 1182.78 1118.79 1184 1120 L 1085.34 1119.74 C 1067.71 1119.64 1033.08 1119.11 1015.95 1121.11 C 979.982 1121.92 942.323 1121.46 906.241 1121.25 C 902.684 1175.81 905.648 1209.32 927.842 1261.02 L 927.936 1235.74 L 947.132 1235.79 L 949.939 1235.63 C 956.954 1236.18 963.271 1235.86 970.289 1235.63 C 969.62 1242.27 969.671 1248.05 969.649 1254.71 C 967.395 1269.42 969.516 1304.75 968.886 1321.55 C 960.955 1313.81 955.556 1303.69 947.874 1296.72 C 943.904 1298.04 934.901 1311.84 932.423 1315.45 C 927.127 1323.16 929.616 1343.66 923.357 1348.63 C 914.99 1346.48 900.699 1315.3 892.31 1310.14 C 886.443 1304.76 870.325 1267.46 866.877 1257.43 C 837.338 1171.51 844.176 1095.1 881.796 1014.19 z"></path>
<path transform="translate(0,0)" fill="url(#svgi_r_5___Gradient9)" d="M 1417.21 941.771 C 1417.33 940.417 1417.45 939.064 1417.59 937.712 L 1419.5 937.683 C 1420.47 948.478 1420.93 958.212 1421.36 969.009 L 1421.03 971.348 L 1419.62 968.41 L 1418.35 968.348 C 1416.78 972.114 1416.68 972.954 1415.95 977.032 L 1416.02 980.552 C 1412.53 982.007 1411.58 982.206 1407.83 982.991 C 1405.99 981.314 1398.56 972.697 1396.28 970.256 C 1390.68 964.24 1384.27 958.488 1378.91 952.665 L 1380.51 951.951 C 1385.83 955.979 1390.63 961.015 1395.4 965.713 C 1401.59 963.466 1408.09 962.087 1414.51 960.529 C 1414.34 953.017 1413.57 948.388 1417.21 941.771 z"></path>
<path transform="translate(0,0)" fill="rgb(142,181,208)" d="M 1417.21 941.771 C 1417.33 940.417 1417.45 939.064 1417.59 937.712 L 1419.5 937.683 C 1420.47 948.478 1420.93 958.212 1421.36 969.009 L 1421.03 971.348 L 1419.62 968.41 L 1418.35 968.348 C 1416.78 972.114 1416.68 972.954 1415.95 977.032 C 1415.63 969.329 1416.92 950.537 1417.21 941.771 z"></path>
<path transform="translate(0,0)" fill="rgb(38,92,152)" d="M 1320.92 918.562 C 1320.93 914.24 1320.75 907.322 1321.24 903.233 L 1322.4 902.574 L 1321.9 900.724 L 1322.01 900.722 L 1321.68 901.099 L 1322.37 901.716 L 1321.41 902.702 L 1322.61 903.218 C 1322.92 908.548 1323.03 913.888 1322.96 919.226 L 1320.92 918.562 z"></path>
<path transform="translate(0,0)" fill="url(#svgi_r_5___Gradient8)" d="M 996.152 965.626 C 1048.33 923.096 1132.65 901.005 1199.02 899.195 L 1199.1 1102 C 1188.6 1102.08 1164.17 1102.89 1154.59 1101.81 C 1151.1 1098.06 1155.14 1097.14 1152.43 1093.11 L 1150.14 1093.18 C 1148.48 1096.1 1148.98 1096.6 1148.94 1100.29 C 1147.65 1101.82 1148.28 1101.68 1146.52 1101.75 C 1129.16 1102.46 1110.28 1102.38 1092.9 1102.06 C 1070.04 1101.64 1046.02 1102.59 1023.43 1101.91 C 987.351 1103.06 946.511 1102.03 910.053 1102 C 920.622 1057.39 936.512 1023.15 968.641 989.619 C 975.249 982.723 988.03 970.819 996.152 965.626 z"></path>
<path transform="translate(0,0)" fill="rgb(142,181,208)" d="M 996.152 965.626 L 998.363 966.28 C 1000.35 964.711 1004.55 960.736 1006.44 960.86 L 1008.47 965.603 C 1009.52 965.705 1010.57 965.808 1011.61 965.91 L 1011.86 967.187 C 987.316 985.904 971.075 1001.2 953.461 1027.23 C 960.156 1030.9 982.49 1043.19 989.323 1045.41 C 988.299 1056.41 973.41 1087.68 974.365 1097.39 C 979.088 1101.78 1011.84 1100.15 1023.43 1101.91 C 987.351 1103.06 946.511 1102.03 910.053 1102 C 920.622 1057.39 936.512 1023.15 968.641 989.619 C 975.249 982.723 988.03 970.819 996.152 965.626 z"></path>
<path transform="translate(0,0)" fill="rgb(202,214,225)" d="M 1011.86 967.187 C 1025.24 959.046 1056.6 938.849 1070.65 938.517 L 1072.34 939.331 C 1072.95 943.29 1069.5 947.922 1067.1 950.916 C 1042.2 981.916 1019 1015.27 999.543 1050.07 L 989.323 1045.41 C 982.49 1043.19 960.156 1030.9 953.461 1027.23 C 971.075 1001.2 987.316 985.904 1011.86 967.187 z"></path>
<path transform="translate(0,0)" fill="rgb(202,214,225)" d="M 1088.76 930.003 L 1090.36 930.429 C 1088.93 933.011 1086.33 933.542 1083.09 935.186 C 1081.25 934.743 1081.98 935.252 1080.94 933.621 C 1082.93 931.612 1085.98 930.956 1088.76 930.003 z"></path>
<path transform="translate(0,0)" fill="rgb(250,251,252)" d="M 590.358 1185.06 C 612.718 1168.98 633.496 1151.62 656.366 1135.8 C 714.86 1095.81 776.536 1060.69 840.774 1030.78 C 850.665 1026.13 871.839 1014.47 881.796 1014.19 C 844.176 1095.1 837.338 1171.51 866.877 1257.43 C 870.325 1267.46 886.443 1304.76 892.31 1310.14 C 897.354 1320.49 907.765 1334.57 914.975 1343.57 C 952.288 1389.93 1002.14 1424.59 1058.59 1443.42 C 1103.73 1458.82 1143.94 1462.69 1191.23 1461.26 C 1194.51 1462.64 1196.19 1463.03 1199.67 1463.9 C 1164.7 1465.7 1039.07 1465.74 1009.23 1456.27 C 1005.58 1452.63 927.046 1425.3 914.537 1419.89 C 813.639 1376.24 717.629 1319.68 639.782 1241.05 C 622.292 1223.38 606.332 1204.09 590.358 1185.06 z"></path>
<path transform="translate(0,0)" fill="rgb(202,214,225)" d="M 581.102 1136.09 C 603.077 1115.09 643.834 1087.25 669.525 1070.45 C 879.795 932.947 1143.51 795.598 1401.07 867.821 C 1417.11 872.319 1455.92 882.976 1470.03 890.443 L 1469.25 891.489 C 1459.45 890.504 1448.39 887.138 1438.81 886.415 C 1409.22 884.178 1374.1 876.362 1344.68 877.03 C 1342.63 877.061 1340.68 876.869 1338.66 876.574 C 1336.07 877.557 1335.9 877.675 1333.58 879.2 C 1211.34 834.538 1074.39 880.646 962.074 932.842 C 950.331 938.299 936.266 943.42 925.835 950.878 C 913.492 959.703 902.379 978.755 894.65 991.718 C 890.557 998.584 886.676 1008.15 881.796 1014.19 C 871.839 1014.47 850.665 1026.13 840.774 1030.78 C 776.536 1060.69 714.86 1095.81 656.366 1135.8 C 633.496 1151.62 612.718 1168.98 590.358 1185.06 C 606.332 1204.09 622.292 1223.38 639.782 1241.05 C 717.629 1319.68 813.639 1376.24 914.537 1419.89 C 927.046 1425.3 1005.58 1452.63 1009.23 1456.27 C 973.672 1451.21 915.122 1432.35 881.723 1420.24 C 785.64 1385.42 690.83 1333.85 616.614 1262.85 C 600.81 1247.73 585.646 1230.59 570.888 1214.22 C 578.93 1186.75 580 1164.12 581.102 1136.09 z"></path>
<path transform="translate(0,0)" fill="url(#svgi_r_5___Gradient7)" d="M 214.538 1037.79 C 227.314 1030.43 240.469 1025.26 254.572 1021.06 C 258.376 1028.17 263.147 1029.36 268.281 1035.65 C 283.493 1041.53 305.158 1046.86 321.789 1052.3 C 328.895 1054.33 336.662 1056.39 343.645 1058.64 C 355.83 1082.51 358.428 1105.72 360.108 1132.05 C 367.454 1131.49 374.796 1130.87 382.133 1130.19 C 386.672 1130 394.682 1128.76 399.394 1128.16 C 406.844 1127.13 414.279 1125.99 421.698 1124.75 C 415.056 1098.99 408.862 1087.99 391.724 1068.18 C 392.722 1059.24 393.46 1053.69 391.404 1044.83 C 399.321 1045.08 403.372 1045.77 411.247 1047.18 C 447.432 1051.36 537.233 1069.42 534.782 1117.52 C 537.361 1117.88 545.002 1118.84 547.065 1119.91 C 551.3 1122.09 554.37 1126.02 555.469 1130.65 C 557.141 1137.48 555.793 1146.03 555.433 1153.05 C 549.721 1264.33 472.369 1350.23 366.644 1379.34 C 296.219 1398.01 221.282 1388.35 157.902 1352.41 C 100.488 1319.72 58.7102 1265.22 42.0462 1201.29 C 38.3451 1187.55 29.9578 1139.67 37.3722 1126.84 C 41.4549 1119.77 48.4577 1118.64 55.7369 1116.86 C 56.4339 1067.46 128.568 1058.06 166.274 1049.41 C 183.695 1045.42 198.976 1048.14 214.538 1037.79 z M 392.086 1315.13 C 351.971 1330.69 316.851 1337.72 273.432 1333.82 C 237.38 1330.73 202.431 1319.83 171.009 1301.89 C 155.557 1293.57 138.926 1280.5 126.594 1268.1 C 91.5476 1232.49 86.6424 1214.36 84.8625 1165.46 C 73.2968 1159.63 68.241 1156.41 58.8427 1147.28 C 59.8936 1197.07 83.3871 1245 119.216 1280.38 C 244.376 1403.98 488.257 1359.21 527.996 1176.99 C 530.173 1167.01 530.761 1156.85 531.761 1146.56 C 525.526 1154.12 514.175 1161.26 505.364 1165.4 C 500.382 1198.86 505.96 1214.8 484.681 1243.15 C 458.269 1278.33 430.944 1296.52 392.086 1315.13 z"></path>
<path transform="translate(0,0)" fill="rgb(202,214,225)" d="M 214.538 1037.79 C 227.314 1030.43 240.469 1025.26 254.572 1021.06 C 258.376 1028.17 263.147 1029.36 268.281 1035.65 C 283.493 1041.53 305.158 1046.86 321.789 1052.3 C 328.895 1054.33 336.662 1056.39 343.645 1058.64 C 355.83 1082.51 358.428 1105.72 360.108 1132.05 C 367.454 1131.49 374.796 1130.87 382.133 1130.19 C 386.672 1130 394.682 1128.76 399.394 1128.16 C 406.844 1127.13 414.279 1125.99 421.698 1124.75 C 415.056 1098.99 408.862 1087.99 391.724 1068.18 C 392.722 1059.24 393.46 1053.69 391.404 1044.83 C 399.321 1045.08 403.372 1045.77 411.247 1047.18 L 411.166 1071.97 C 516.147 1091.67 533.587 1119.83 414.35 1141.16 C 407.907 1142.32 396.764 1143.15 390.945 1144.69 C 340.225 1150.25 290.373 1152.31 239.424 1148.26 C 233.696 1147.8 227.4 1147.12 221.698 1146.96 C 209.301 1145.26 79.1293 1132.68 95.1658 1101.42 C 102.04 1088.02 159.239 1075.25 179.766 1071.13 C 166.982 1088.79 163.087 1101.67 158.127 1122.4 L 178.599 1125.89 C 184.868 1096.56 196.31 1076.4 220.28 1057.72 C 216.368 1047.33 218.438 1043.68 214.538 1037.79 z"></path>
<path transform="translate(0,0)" fill="url(#svgi_r_5___Gradient6)" d="M 321.789 1052.3 C 328.895 1054.33 336.662 1056.39 343.645 1058.64 C 355.83 1082.51 358.428 1105.72 360.108 1132.05 C 354.608 1132.42 342.915 1132.87 337.95 1133.75 L 325.752 1134.36 C 322.87 1135.97 299.065 1135.13 293.994 1135.07 C 294.127 1109.63 297.839 1103.44 305.424 1080.97 C 305.752 1079.26 319.973 1055.44 321.789 1052.3 z"></path>
<path transform="translate(0,0)" fill="rgb(25,61,111)" d="M 325.752 1134.36 C 321.5 1134.33 321.108 1135.03 318.08 1133.15 C 320.947 1120.71 324.572 1108.34 327.878 1095.99 C 329.732 1089.07 331.25 1079.37 334.07 1073.17 L 335.132 1072.79 C 336.822 1078.93 338.301 1126.01 337.95 1133.75 L 325.752 1134.36 z"></path>
<path transform="translate(0,0)" fill="rgb(75,121,172)" d="M 214.538 1037.79 C 227.314 1030.43 240.469 1025.26 254.572 1021.06 C 258.376 1028.17 263.147 1029.36 268.281 1035.65 C 249.457 1040.84 236.106 1046.01 220.28 1057.72 C 216.368 1047.33 218.438 1043.68 214.538 1037.79 z"></path>
<path transform="translate(0,0)" fill="rgb(38,92,152)" d="M 273.404 1134.7 C 280.49 1114.84 292.07 1097.21 305.424 1080.97 C 297.839 1103.44 294.127 1109.63 293.994 1135.07 L 273.404 1134.7 z"></path>
<path transform="translate(0,0)" fill="rgb(38,92,152)" d="M 265.547 1051.96 L 266.833 1052.43 C 236.581 1076.56 224.504 1092.11 213.068 1130.99 C 208.437 1129.89 201.764 1129.23 196.899 1128.59 C 194.291 1128.02 195.07 1128.33 192.848 1127.13 C 192.036 1122.92 193.279 1121.15 195.138 1116.78 C 209.497 1083.03 232.184 1065.23 265.547 1051.96 z"></path>
<path transform="translate(0,0)" fill="rgb(38,92,152)" d="M 289.09 1060.08 C 289.905 1061.35 277.516 1076.36 275.365 1079.83 C 265.464 1095.82 258.49 1115.69 254.542 1133.89 C 247.757 1133.38 240.764 1133.16 233.949 1132.87 L 232.057 1132.01 C 231.768 1128.22 234.862 1121.59 236.562 1118.03 C 248.211 1093.66 267.082 1075.25 289.09 1060.08 z"></path>
<path transform="translate(0,0)" fill="rgb(38,92,152)" d="M 411.247 1047.18 C 447.432 1051.36 537.233 1069.42 534.782 1117.52 C 530.418 1122.02 533.814 1133.32 518.973 1142.63 C 474.98 1170.22 408.845 1182.68 357.622 1186.27 C 346.281 1191.67 265.382 1190.71 247.143 1189.43 C 251.528 1188.82 268.609 1189.51 274.161 1189.79 C 292.621 1190.7 310.372 1189.05 328.803 1188.68 C 331.884 1188.62 332.996 1187.57 334.552 1185.65 C 334.518 1177.77 320.903 1166.83 329.041 1157.37 C 330.716 1155.43 330.295 1156.34 330.385 1153.76 C 326.553 1149.74 231.563 1155.1 221.698 1146.96 C 227.4 1147.12 233.696 1147.8 239.424 1148.26 C 290.373 1152.31 340.225 1150.25 390.945 1144.69 C 396.764 1143.15 407.907 1142.32 414.35 1141.16 C 533.587 1119.83 516.147 1091.67 411.166 1071.97 L 411.247 1047.18 z"></path>
<path transform="translate(0,0)" fill="rgb(38,92,152)" d="M 273.432 1333.82 L 273.554 1331.9 C 285.447 1334.45 332.579 1332.69 343.491 1327.74 C 345.394 1322.2 339.399 1320.92 337.519 1316.47 C 337.007 1312.56 343.902 1308.05 343.512 1304.81 C 342.392 1295.5 343.914 1284.9 342.134 1275.89 C 340.333 1266.76 339.257 1259.51 339.321 1250.38 C 340.675 1248.5 339.869 1249.32 342.13 1248.29 C 342.58 1241.21 346.827 1222.73 344.67 1218.77 C 341.332 1216.93 330.947 1217.98 325.903 1217.76 C 354.391 1215.18 368.847 1213.62 397.297 1208.44 C 396.47 1242.26 394.31 1281.41 392.086 1315.13 C 351.971 1330.69 316.851 1337.72 273.432 1333.82 z"></path>
<path transform="translate(0,0)" fill="url(#svgi_r_5___Gradient5)" d="M 118.939 1194.13 C 134.1 1198.78 147.257 1202.63 162.978 1205.53 C 165.861 1237.63 168.538 1269.75 171.009 1301.89 C 155.557 1293.57 138.926 1280.5 126.594 1268.1 C 124.788 1247.13 122.271 1214.51 118.939 1194.13 z"></path>
<path transform="translate(0,0)" fill="rgb(38,92,152)" d="M 180.101 1052.17 C 183.952 1052.83 187.676 1053.56 189.112 1057.47 C 187.817 1060 182.218 1065.15 179.928 1067.43 C 177.818 1067.82 177.218 1067.88 175.129 1067.85 L 173.328 1067.82 L 173.469 1069.37 C 170.497 1069.5 170.227 1070.27 167.174 1069.75 C 166.292 1066.12 164.894 1064.58 163.002 1061.45 C 165.056 1056.89 174.57 1054.68 180.101 1052.17 z"></path>
<path transform="translate(0,0)" fill="rgb(38,92,152)" d="M 503.972 617.698 C 605.209 575.985 696.126 544.818 803.904 522.127 C 1079.12 464.184 1376.25 484.937 1636.48 593.38 C 1678.84 610.959 1720.22 630.808 1760.44 652.842 C 1772.95 659.688 1790.34 668.913 1801.86 676.664 C 1801.64 737.432 1802.57 800.002 1801.67 860.572 C 1802.19 880.448 1801.81 902.616 1801.84 922.653 C 1789.86 914.722 1777.18 906.916 1765.01 899.205 C 1764.96 881.651 1765.03 864.098 1765.22 846.546 C 1764.95 797.994 1763.98 743.587 1765.3 695.448 C 1682.87 651.878 1605.28 616.518 1515.62 588.766 C 1242.07 504.089 948.635 509.089 675.524 593.057 C 608.384 613.699 556.376 634.548 492.614 661.407 C 496.569 646.882 500.355 632.311 503.972 617.698 z"></path>
<path transform="translate(0,0)" fill="url(#svgi_r_5___Gradient4)" d="M 1765.22 846.546 C 1767.52 834.598 1764.6 820.488 1766.71 809.735 C 1767.31 820.047 1767.57 830.376 1767.49 840.705 C 1782.81 843.759 1792.5 853.889 1798.31 854.806 L 1799.54 853.113 C 1798.75 850.239 1800.4 831.913 1799.52 826.381 C 1802.17 829.712 1799.39 852.55 1801.67 860.572 C 1802.19 880.448 1801.81 902.616 1801.84 922.653 C 1789.86 914.722 1777.18 906.916 1765.01 899.205 C 1764.96 881.651 1765.03 864.098 1765.22 846.546 z"></path>
<path transform="translate(0,0)" fill="rgb(38,92,152)" d="M 389.351 1389.65 C 427.804 1376.68 461.037 1356.31 491.449 1329.67 C 486.001 1365.94 480.807 1402.26 475.867 1438.6 C 474.186 1450.85 470.042 1490.23 465.934 1499.85 C 449.304 1538.82 354.04 1540.02 320.641 1541.91 C 280.042 1543.38 157.16 1542.32 131.614 1508.83 C 117.756 1495.21 116.333 1453.31 114.024 1433.31 L 101.854 1329.76 C 111.069 1339.63 125.873 1350.16 137.214 1357.94 C 214.631 1403.8 302.831 1422.63 389.351 1389.65 z"></path>
<path transform="translate(0,0)" fill="rgb(25,61,111)" d="M 389.351 1389.65 C 427.804 1376.68 461.037 1356.31 491.449 1329.67 C 486.001 1365.94 480.807 1402.26 475.867 1438.6 C 474.186 1450.85 470.042 1490.23 465.934 1499.85 C 449.304 1538.82 354.04 1540.02 320.641 1541.91 C 328.066 1532.67 349.38 1533.66 365.057 1519.77 C 372.247 1513.36 377.554 1505.12 380.406 1495.92 C 384.738 1482.19 388.52 1408.06 389.351 1389.65 z"></path>
<path transform="translate(0,0)" fill="rgb(25,61,111)" d="M 131.614 1508.83 C 117.756 1495.21 116.333 1453.31 114.024 1433.31 L 101.854 1329.76 C 111.069 1339.63 125.873 1350.16 137.214 1357.94 C 136.136 1364.05 137.959 1375.84 137.371 1377.11 C 135.564 1370.94 134.848 1368.55 135.069 1362.69 C 135.301 1356.5 113.012 1343.22 107.369 1339.97 L 105.944 1340.92 C 105.037 1348 110.257 1383.44 111.357 1393.45 C 114.808 1424.88 118.695 1457.26 122.757 1488.7 C 123.634 1495.49 132.132 1503.98 131.614 1508.83 z"></path>
<path transform="translate(0,0)" fill="url(#svgi_r_5___Gradient3)" d="M 324.373 974.877 C 351.016 878.74 382.094 779.654 410.943 683.996 L 439.072 592.058 C 443.9 575.802 447.93 558.84 453.46 542.944 C 457.921 530.122 468.785 519.859 482.945 524.913 C 507.446 533.659 497.72 557.137 491.922 575.144 C 489.227 583.514 486.571 591.813 484.102 600.06 L 457.578 690.78 L 369.577 988.589 C 383.79 1003.8 382.917 1015.98 379.189 1035.04 C 384.369 1037.79 388.122 1039.77 391.404 1044.83 C 393.46 1053.69 392.722 1059.24 391.724 1068.18 C 408.862 1087.99 415.056 1098.99 421.698 1124.75 C 414.279 1125.99 406.844 1127.13 399.394 1128.16 C 394.682 1128.76 386.672 1130 382.133 1130.19 C 374.796 1130.87 367.454 1131.49 360.108 1132.05 C 358.428 1105.72 355.83 1082.51 343.645 1058.64 C 336.662 1056.39 328.895 1054.33 321.789 1052.3 C 305.158 1046.86 283.493 1041.53 268.281 1035.65 C 263.147 1029.36 258.376 1028.17 254.572 1021.06 C 273.33 1017.68 265.609 1008.3 290.221 1008.67 C 297.012 988.672 303.597 980.573 324.373 974.877 z M 476.64 564.516 C 485.675 556.545 486.272 543.977 471.892 543.695 C 464.104 551.463 463.088 564.315 476.64 564.516 z"></path>
<path transform="translate(0,0)" fill="rgb(142,181,208)" d="M 360.825 1065.99 C 379.969 1079.6 394.794 1105.51 399.394 1128.16 C 394.682 1128.76 386.672 1130 382.133 1130.19 C 377.343 1103.65 373.788 1089.6 360.825 1065.99 z"></path>
<path transform="translate(0,0)" fill="rgb(142,181,208)" d="M 395.618 776.019 C 401.115 752.438 410.365 727.018 416.702 703.399 C 418.299 697.448 422.489 686.517 423.434 681.448 L 425.587 685.583 C 428.848 686.552 427.154 686.38 430.877 685.529 L 431.44 683.284 C 431.81 687.228 407.263 773.042 403.591 781.15 C 389.99 825.282 377.987 870.877 364.351 915.085 C 361.105 925.607 350.867 965.437 346.311 973.034 C 343.105 973.589 342.406 973.154 339.243 972.407 C 338.112 970.464 338.264 968.098 338.906 966.004 C 344.591 947.437 350.186 928.81 355.641 910.177 L 395.618 776.019 z"></path>
<path transform="translate(0,0)" fill="rgb(75,121,172)" d="M 395.618 776.019 C 401.115 752.438 410.365 727.018 416.702 703.399 C 418.299 697.448 422.489 686.517 423.434 681.448 L 425.587 685.583 C 428.848 686.552 427.154 686.38 430.877 685.529 L 431.44 683.284 C 431.81 687.228 407.263 773.042 403.591 781.15 C 404.009 765.014 411.476 761.917 410.309 744.76 L 408.211 743.336 L 409.125 742.586 L 410.104 743.906 L 408.083 743.372 C 402.913 752.456 400.558 770.335 395.618 776.019 z"></path>
<path transform="translate(0,0)" fill="rgb(129,152,182)" d="M 327.593 991.263 C 333.24 991.687 335.044 991.501 340.268 993.884 L 340.302 994.758 C 329.842 997.653 320.097 999.333 315.165 1010.25 C 313.459 1014.77 313.468 1014.86 309.12 1016.12 C 307.308 1015.26 305.504 1014.72 305.344 1012.22 C 304.532 999.582 317.264 993.01 327.593 991.263 z"></path>
<path transform="translate(0,0)" fill="rgb(38,92,152)" d="M 1057.69 676.339 C 1082.66 670.056 1117.28 665.279 1142.89 662.798 C 1280.86 648.875 1419.62 680.137 1538.28 751.882 C 1568.03 769.726 1606.08 797.747 1631.33 821.394 C 1617.54 813.103 1603.08 806.459 1588.79 799.143 C 1469.79 738.234 1335.82 705.159 1201.81 711.42 C 1172.79 712.953 1143.86 715.939 1115.14 720.367 C 1101.17 722.477 1085.42 725.71 1071.79 727.521 L 1070.27 726.305 L 1073.94 725.874 L 1073.4 725.071 C 1064.84 724.183 1043.87 732.697 1031.11 731.44 L 1030.28 729.82 L 1031.7 726.837 C 1030.82 723.582 1022.99 715.139 1019.83 711.122 C 1015.22 706.68 1016.92 692.924 1022.59 690.517 C 1030.72 687.07 1062.66 688.158 1065.91 676.571 C 1063.25 676.751 1062.23 676.849 1059.57 676.557 L 1057.69 676.339 z"></path>
<path transform="translate(0,0)" fill="rgb(25,61,111)" d="M 1071.79 727.521 C 1067.81 729.081 1042.96 734.057 1037.01 735.428 C 1013.89 740.727 990.97 746.889 968.31 753.903 C 861.004 787.823 759.245 837.279 666.275 900.696 C 615.067 935.13 567.217 974.312 523.358 1017.72 C 517.375 1023.72 503.467 1039.56 497.312 1042.47 C 494.635 1041.85 495.581 1042.27 493.414 1040.49 C 496.1 1033.64 515.181 1008.74 520.803 1001.78 C 634.541 860.776 794.138 758.419 965.155 701.317 C 983.833 695.08 1039.21 678.353 1057.69 676.339 L 1059.57 676.557 C 1062.23 676.849 1063.25 676.751 1065.91 676.571 C 1062.66 688.158 1030.72 687.07 1022.59 690.517 C 1016.92 692.924 1015.22 706.68 1019.83 711.122 C 1022.99 715.139 1030.82 723.582 1031.7 726.837 L 1030.28 729.82 L 1031.11 731.44 C 1043.87 732.697 1064.84 724.183 1073.4 725.071 L 1073.94 725.874 L 1070.27 726.305 L 1071.79 727.521 z"></path>
<path transform="translate(0,0)" fill="url(#svgi_r_5___Gradient2)" d="M 1765.04 1342.92 C 1776.88 1333.17 1789.87 1324.9 1801.57 1314.44 C 1802.43 1330.83 1802.06 1351.1 1801.86 1367.63 C 1802.11 1403.15 1801.18 1441.65 1802.32 1476.84 C 1780.68 1486.36 1744 1498.11 1721.55 1504.74 C 1655.14 1524.26 1587.34 1538.71 1518.74 1547.95 L 1518.61 1546.85 C 1517.21 1546.67 1518.04 1546.86 1516.21 1546.02 C 1514.67 1542.46 1511.73 1536.57 1511.41 1532.98 C 1513 1531.06 1514.01 1530.07 1515.12 1527.84 C 1513.21 1525.92 1514.96 1528.45 1508.47 1527.36 C 1515.37 1525.05 1528.04 1522.53 1535.55 1520.79 L 1588.72 1508.35 C 1625.88 1499.24 1662.79 1489.1 1699.39 1477.96 C 1720.78 1471.46 1744.56 1464.3 1765.27 1456.21 C 1766.14 1432.05 1764.62 1405.23 1765.98 1381.43 C 1765.33 1369.22 1765.33 1355.28 1765.04 1342.92 z"></path>
<path transform="translate(0,0)" fill="url(#svgi_r_5___Gradient1)" d="M 1765.04 1342.92 C 1776.88 1333.17 1789.87 1324.9 1801.57 1314.44 C 1802.43 1330.83 1802.06 1351.1 1801.86 1367.63 L 1801.31 1372.6 L 1800.23 1373.13 L 1800.94 1374.12 L 1800.2 1374.69 L 1800.99 1373.66 L 1800.63 1374.78 C 1799.08 1370.5 1800.65 1360.99 1799.81 1355.93 C 1788.08 1358.57 1778.1 1364.63 1767.31 1370.16 C 1767.08 1373.31 1766.9 1378.59 1765.98 1381.43 C 1765.33 1369.22 1765.33 1355.28 1765.04 1342.92 z"></path>
<path transform="translate(0,0)" fill="rgb(38,92,152)" d="M 496.558 1471.66 C 504.691 1475.05 521.415 1478.42 530.544 1481.04 C 559.965 1489.48 591.522 1495.04 620.826 1502.61 C 652.232 1507.49 684.509 1515.52 716.108 1520.28 C 793.356 1531.92 869.206 1544.3 946.122 1557.99 L 942.508 1561 C 913.234 1560.06 884.765 1560.05 855.164 1558.7 C 799.512 1555.98 744.005 1550.83 688.804 1543.25 C 673.049 1541 642.92 1537.37 628.227 1533.25 C 623.613 1532.77 618.596 1531.7 613.995 1530.86 C 572.844 1523.39 532.442 1512.58 491.592 1503.81 C 493.477 1495.17 495.202 1480.82 496.558 1471.66 z"></path>
<path transform="translate(0,0)" fill="rgb(25,61,111)" d="M 620.826 1502.61 C 652.232 1507.49 684.509 1515.52 716.108 1520.28 C 793.356 1531.92 869.206 1544.3 946.122 1557.99 L 942.508 1561 C 913.234 1560.06 884.765 1560.05 855.164 1558.7 C 799.512 1555.98 744.005 1550.83 688.804 1543.25 C 673.049 1541 642.92 1537.37 628.227 1533.25 L 629.142 1532.07 C 637.924 1531.72 660.91 1538.05 671.298 1538.79 C 684.546 1539.74 700.031 1542.69 713.069 1544.86 C 716.984 1543.6 721.791 1541.97 723.994 1538.69 C 719.344 1515.35 628.251 1510.39 620.826 1502.61 z"></path>
<path transform="translate(0,0)" fill="rgb(25,61,111)" d="M 438.045 843.557 C 439.755 847.709 438.944 1010.25 438.538 1025.65 C 427.136 1023.63 417.141 1021.5 405.505 1019.89 C 404.584 1005.39 401.594 996.12 397.663 982.246 C 401.808 964.162 409.93 939.322 415.407 921.089 L 438.045 843.557 z"></path>
<path transform="translate(0,0)" fill="rgb(129,152,182)" d="M 1518.74 1547.95 C 1479.74 1553.61 1440.5 1557.44 1401.15 1559.42 C 1391.4 1559.84 1375.95 1560.74 1366.31 1560.27 L 1366.76 1558.83 C 1399.46 1552.14 1431.57 1543.99 1464.24 1537.16 C 1478.65 1534.15 1494.1 1529.86 1508.47 1527.36 C 1514.96 1528.45 1513.21 1525.92 1515.12 1527.84 C 1514.01 1530.07 1513 1531.06 1511.41 1532.98 C 1511.73 1536.57 1514.67 1542.46 1516.21 1546.02 C 1518.04 1546.86 1517.21 1546.67 1518.61 1546.85 L 1518.74 1547.95 z"></path>
<path transform="translate(0,0)" fill="rgb(63,61,80)" fill-opacity="0.94902" d="M 946.122 1557.99 C 949.64 1558.53 954.418 1558.89 957.329 1560.66 C 952.522 1561.52 947.435 1561.13 942.508 1561 L 946.122 1557.99 z"></path>
</svg>